<svg height="512pt" viewBox="-7 0 512 512" width="512pt" xmlns="http://www.w3.org/2000/svg"><path d="m367.984375 401.8125v102.582031h-238.113281v-102.582031" fill="#e6e6e6"/><path d="m178.574219 401.8125v102.582031h-48.703125v-102.582031" fill="#ccc"/><path d="m478.816406 7.601562c0 15.988282-6.476562 30.476563-16.960937 40.960938-10.484375 10.472656-24.960938 16.960938-40.960938 16.960938h-343.929687c-31.988282 0-57.921875-25.933594-57.921875-57.921876zm0 0" fill="#49b2a1"/><path d="m478.816406 7.601562c0 15.988282-6.476562 30.476563-16.960937 40.960938-10.484375 10.472656-24.960938 16.960938-40.960938 16.960938h-276.550781c-31.988281 0-57.921875-25.933594-57.921875-57.921876zm0 0" fill="#6acebf"/><path d="m369.816406 65.523438v43.699218c0 13.078125-10.605468 23.683594-23.683594 23.683594h-194.417968c-13.078125 0-23.683594-10.605469-23.683594-23.683594v-43.699218zm0 0" fill="#1c414b"/><path d="m369.816406 65.523438v43.699218c0 13.078125-10.605468 23.683594-23.683594 23.683594h-141.566406c-13.078125 0-23.683594-10.605469-23.683594-23.683594v-43.699218zm0 0" fill="#305967"/><path d="m305.929688 313.964844-57.003907 66.027344-57-66.027344v-181.054688h114.003907zm0 0" fill="#e6e6e6"/><path d="m248.925781 379.996094-57-66.03125v-181.058594h33.550781v181.058594zm0 0" fill="#ccc"/><path d="m248.925781 468.433594-241.320312-135.039063 24.757812-44.238281 216.5625 121.1875 216.570313-121.1875 24.753906 44.238281zm0 0" fill="#f95858"/><path d="m76.960938 73.128906h43.472656v36.09375c0 17.253906 14.035156 31.289063 31.285156 31.289063h32.605469v173.453125c0 1.824218.65625 3.585937 1.847656 4.96875l57 66.027344c1.445313 1.671874 3.546875 2.636718 5.757813 2.636718 2.210937 0 4.308593-.964844 5.753906-2.636718l57.003906-66.027344c1.191406-1.382813 1.847656-3.144532 1.847656-4.96875v-103.074219c0-4.199219-3.40625-7.605469-7.605468-7.605469-4.199219 0-7.605469 3.40625-7.605469 7.605469v100.246094l-49.394531 57.21875-49.398438-57.21875v-170.625h98.792969v39.960937c0 4.199219 3.40625 7.605469 7.605469 7.605469 4.199218 0 7.605468-3.40625 7.605468-7.605469v-39.960937h32.601563c17.253906 0 31.289062-14.035157 31.289062-31.289063v-36.09375h43.46875c36.132813 0 65.527344-29.394531 65.527344-65.523437 0-4.199219-3.402344-7.605469-7.605469-7.605469h-459.777344c-4.199218 0-7.605468 3.40625-7.605468 7.605469 0 36.128906 29.394531 65.523437 65.527344 65.523437zm285.253906 36.09375c0 8.867188-7.210938 16.082032-16.078125 16.082032h-194.417969c-8.867188 0-16.078125-7.214844-16.078125-16.082032v-36.09375h226.574219zm108.425781-94.015625c-3.675781 24.152344-24.582031 42.714844-49.746094 42.714844h-343.933593c-25.160157 0-46.066407-18.5625-49.742188-42.714844zm0 0"/><path d="m496.890625 329.683594-24.761719-44.246094c-2.046875-3.660156-6.683594-4.972656-10.347656-2.921875l-212.859375 119.109375-212.84375-119.109375c-1.761719-.984375-3.839844-1.230469-5.78125-.679687-1.941406.546874-3.585937 1.84375-4.570313 3.601562l-24.757812 44.246094c-.984375 1.761718-1.230469 3.839844-.683594 5.78125.550782 1.941406 1.847656 3.582031 3.605469 4.566406l66.589844 37.261719c3.664062 2.046875 8.300781.742187 10.351562-2.925781 2.050781-3.664063.742188-8.296876-2.925781-10.347657l-59.953125-33.546875 17.332031-30.972656 209.925782 117.476562c2.308593 1.289063 5.117187 1.289063 7.425781 0l209.933593-117.476562 17.332032 30.972656-230.980469 129.25-144.472656-80.847656c-3.664063-2.050781-8.296875-.742188-10.347657 2.921875-2.050781 3.664063-.742187 8.296875 2.921876 10.347656l25.242187 14.125v98.125c0 4.199219 3.402344 7.605469 7.601563 7.605469h238.117187c4.199219 0 7.605469-3.40625 7.605469-7.605469v-98.125l118.375-66.238281c1.761718-.984375 3.058594-2.625 3.605468-4.566406.550782-1.941406.304688-4.019532-.679687-5.78125zm-136.507813 167.109375h-222.90625v-82.011719l107.734376 60.289062c1.152343.644532 2.433593.96875 3.714843.96875 1.277344 0 2.558594-.324218 3.710938-.96875l107.746093-60.289062zm0 0"/><path d="m34.703125 248.894531c-2.050781 3.664063-.742187 8.296875 2.921875 10.347657l104.515625 58.488281c1.175781.65625 2.453125.96875 3.707031.96875 2.664063 0 5.25-1.402344 6.644532-3.894531 2.050781-3.664063.742187-8.296876-2.921876-10.347657l-104.515624-58.484375c-3.667969-2.054687-8.300782-.746094-10.351563 2.921875zm0 0"/><path d="m110.992188 269.589844c1.175781.65625 2.449218.96875 3.707031.96875 2.664062 0 5.25-1.402344 6.640625-3.890625 2.050781-3.664063.742187-8.300781-2.921875-10.351563l-47.058594-26.332031c-3.667969-2.050781-8.300781-.742187-10.347656 2.921875-2.050781 3.664062-.742188 8.296875 2.921875 10.347656zm0 0"/><path d="m345.21875 314.804688c1.394531 2.492187 3.976562 3.894531 6.640625 3.894531 1.257813 0 2.535156-.3125 3.707031-.972657l104.515625-58.484374c3.667969-2.050782 4.972657-6.683594 2.925781-10.351563-2.050781-3.664063-6.6875-4.972656-10.351562-2.921875l-104.515625 58.488281c-3.664063 2.050781-4.972656 6.683594-2.921875 10.347657zm0 0"/><path d="m383.011719 270.558594c1.257812 0 2.53125-.3125 3.707031-.96875l47.058594-26.335938c3.664062-2.050781 4.972656-6.683594 2.921875-10.347656-2.046875-3.667969-6.683594-4.976562-10.347657-2.921875l-47.058593 26.332031c-3.664063 2.050782-4.972657 6.683594-2.921875 10.351563 1.390625 2.488281 3.976562 3.890625 6.640625 3.890625zm0 0"/></svg>