<svg id="Laser" viewBox="0 0 64 64" xmlns="http://www.w3.org/2000/svg"><path d="m57 56h-19.27l11.61-4.18c.52-.19.79-.76.6-1.28s-.76-.79-1.28-.6l-14.36 5.17 4.56-7.59c.28-.47.13-1.09-.34-1.37s-1.09-.13-1.37.34l-5.14 8.57-5.14-8.57c-.28-.47-.9-.63-1.37-.34-.47.28-.63.9-.34 1.37l4.56 7.59-14.36-5.17c-.52-.19-1.09.08-1.28.6s.08 1.09.6 1.28l11.61 4.18h-19.29c-.55 0-1 .45-1 1v4c0 .55.45 1 1 1h50c.55 0 1-.45 1-1v-4c0-.55-.45-1-1-1zm-1 4h-48v-2h48z"/><path d="m53 50.44c.11 0 .23-.02.34-.06l4-1.44c.52-.19.79-.76.6-1.28s-.76-.79-1.28-.6l-4 1.44c-.52.19-.79.76-.6 1.28.15.41.53.66.94.66z"/><path d="m6.66 48.94 4 1.44c.11.04.23.06.34.06.41 0 .79-.25.94-.66.19-.52-.08-1.09-.6-1.28l-4-1.44c-.52-.19-1.09.08-1.28.6s.08 1.09.6 1.28z"/><path d="m22.5 51c.31 0 .61-.14.81-.41.33-.44.23-1.07-.21-1.4l-9.5-7c-.45-.33-1.07-.23-1.4.21s-.23 1.07.21 1.4l9.5 7c.18.13.39.2.59.2z"/><path d="m42.09 50.8 9.5-7c.44-.33.54-.95.21-1.4s-.95-.54-1.4-.21l-9.5 7c-.44.33-.54.95-.21 1.4.2.27.5.41.81.41.21 0 .41-.06.59-.2z"/><path d="m60 2h-56c-.55 0-1 .45-1 1v4c0 .55.45 1 1 1h8v1c0 1.65 1.35 3 3 3h4v5s0 .02 0 .02c0 .12.03.23.07.34.01.03.03.05.04.07.02.05.04.09.07.13l6.82 9.74v3.68c0 .18.05.36.14.51l2.42 4.03c.52.86 1.44 1.39 2.44 1.44v12.02c0 .55.45 1 1 1s1-.45 1-1v-12.02c1-.05 1.92-.58 2.44-1.44l2.42-4.03c.09-.16.14-.33.14-.51v-3.68l6.82-9.74s.05-.09.07-.13c.01-.03.03-.05.04-.07.04-.11.07-.22.07-.34v-.02-5h4c1.65 0 3-1.35 3-3v-1h8c.55 0 1-.45 1-1v-4c0-.55-.45-1-1-1zm-24 28.72-2.27 3.79c-.18.3-.51.49-.86.49h-1.74c-.35 0-.68-.19-.86-.49l-2.27-3.79v-2.72h8zm.48-4.72h-8.96l-5.6-8h20.16zm6.52-10h-22v-4h22zm7-7c0 .55-.45 1-1 1h-34c-.55 0-1-.45-1-1v-1h36zm9-3h-54v-2h54z"/></svg>