<?xml version="1.0" encoding="UTF-8" standalone="no"?>
<!-- Created with Inkscape (http://www.inkscape.org/) -->

<svg
   version="1.1"
   id="svg6552"
   xml:space="preserve"
   width="682.66669"
   height="682.66669"
   viewBox="0 0 682.66669 682.66669"
   xmlns="http://www.w3.org/2000/svg"
   xmlns:svg="http://www.w3.org/2000/svg"><defs
     id="defs6556"><clipPath
       clipPathUnits="userSpaceOnUse"
       id="clipPath6594"><path
         d="M 0,512 H 512 V 0 H 0 Z"
         id="path6592" /></clipPath></defs><g
     id="g6558"
     transform="matrix(1.3333333,0,0,-1.3333333,0,682.66667)"><path
       d="m 7.556,454.249 h 496.889 v 30.249 H 7.556 Z"
       style="fill:#b7d4e2;fill-opacity:1;fill-rule:nonzero;stroke:none"
       id="path6560" /><path
       d="m 31.05,424 h 449.899 v 30.249 H 31.05 Z"
       style="fill:#668fa3;fill-opacity:1;fill-rule:nonzero;stroke:none"
       id="path6562" /><path
       d="m 504.444,454.249 h -31.993 v 30.249 h 31.993 z"
       style="fill:#99bac6;fill-opacity:1;fill-rule:nonzero;stroke:none"
       id="path6564" /><path
       d="m 480.95,424 h -31.993 v 30.249 h 31.993 z"
       style="fill:#4c7889;fill-opacity:1;fill-rule:nonzero;stroke:none"
       id="path6566" /><path
       d="M 360.977,369 H 151.024 v 55 h 209.953 z"
       style="fill:#ffc73b;fill-opacity:1;fill-rule:nonzero;stroke:none"
       id="path6568" /><path
       d="m 330.983,369 h 29.993 v 55 h -29.993 z"
       style="fill:#ffa73e;fill-opacity:1;fill-rule:nonzero;stroke:none"
       id="path6570" /><path
       d="m 271.121,424 h -30.242 v 80.5 h 30.242 z"
       style="fill:#4c7889;fill-opacity:1;fill-rule:nonzero;stroke:none"
       id="path6572" /><path
       d="M 271.121,424 H 256 v 80.5 h 15.121 z"
       style="fill:#364c59;fill-opacity:1;fill-rule:nonzero;stroke:none"
       id="path6574" /><path
       d="M 310.768,279.007 H 201.232 V 369 h 109.536 z"
       style="fill:#4c7889;fill-opacity:1;fill-rule:nonzero;stroke:none"
       id="path6576" /><path
       d="M 310.768,279.007 H 287.644 V 369 h 23.124 z"
       style="fill:#364c59;fill-opacity:1;fill-rule:nonzero;stroke:none"
       id="path6578" /><g
       id="g6580"
       transform="translate(290.812,279.0107)"><path
         d="m 0,0 -14.997,-49.64 h -39.63 L -69.624,0 Z"
         style="fill:#b7d4e2;fill-opacity:1;fill-rule:nonzero;stroke:none"
         id="path6582" /></g><g
       id="g6584"
       transform="translate(290.812,279.0107)"><path
         d="M 0,0 -14.997,-49.64 H -34.812 L -19.815,0 Z"
         style="fill:#99bac6;fill-opacity:1;fill-rule:nonzero;stroke:none"
         id="path6586" /></g><g
       id="g6588"><g
         id="g6590"
         clip-path="url(#clipPath6594)"><g
           id="g6596"
           transform="translate(504.4443,22.627)"><path
             d="m 0,0 c 0,-4.181 -1.689,-7.95 -4.419,-10.69 -2.739,-2.73 -6.519,-4.42 -10.687,-4.42 h -466.676 c -8.348,0 -15.107,6.759 -15.107,15.11 0,4.17 1.69,7.939 4.419,10.68 2.74,2.73 6.519,4.42 10.688,4.42 H -15.106 C -6.758,15.1 0,8.34 0,0"
             style="fill:#4c7889;fill-opacity:1;fill-rule:nonzero;stroke:none"
             id="path6598" /></g><g
           id="g6600"
           transform="translate(504.4443,22.627)"><path
             d="m 0,0 c 0,-4.181 -1.689,-7.95 -4.419,-10.69 -2.739,-2.73 -6.519,-4.42 -10.687,-4.42 h -34.803 c 4.169,0 7.938,1.69 10.678,4.42 2.729,2.74 4.419,6.509 4.419,10.69 0,8.34 -6.759,15.1 -15.097,15.1 h 34.803 C -6.758,15.1 0,8.34 0,0"
             style="fill:#364c59;fill-opacity:1;fill-rule:nonzero;stroke:none"
             id="path6602" /></g><g
           id="g6604"
           transform="translate(80.3022,484.4717)"><path
             d="M 0,0 H 160.584"
             style="fill:none;stroke:#000000;stroke-width:15;stroke-linecap:round;stroke-linejoin:round;stroke-miterlimit:10;stroke-dasharray:none;stroke-opacity:1"
             id="path6606" /></g><g
           id="g6608"
           transform="translate(240.8867,454.1826)"><path
             d="m 0,0 h -233.265 v 30.289 h 37.388"
             style="fill:none;stroke:#000000;stroke-width:15;stroke-linecap:round;stroke-linejoin:round;stroke-miterlimit:10;stroke-dasharray:none;stroke-opacity:1"
             id="path6610" /></g><g
           id="g6612"
           transform="translate(393.938,454.1826)"><path
             d="M 0,0 H -122.817"
             style="fill:none;stroke:#000000;stroke-width:15;stroke-linecap:round;stroke-linejoin:round;stroke-miterlimit:10;stroke-dasharray:none;stroke-opacity:1"
             id="path6614" /></g><g
           id="g6616"
           transform="translate(271.1211,484.4717)"><path
             d="M 0,0 H 233.264 V -30.289 H 157.933"
             style="fill:none;stroke:#000000;stroke-width:15;stroke-linecap:round;stroke-linejoin:round;stroke-miterlimit:10;stroke-dasharray:none;stroke-opacity:1"
             id="path6618" /></g><g
           id="g6620"
           transform="translate(480.8965,454.1826)"><path
             d="M 0,0 V -30.289 H -449.785 V 0"
             style="fill:none;stroke:#000000;stroke-width:15;stroke-linecap:round;stroke-linejoin:round;stroke-miterlimit:10;stroke-dasharray:none;stroke-opacity:1"
             id="path6622" /></g><path
           d="m 360.954,368.821 h -209.9 v 55.072 h 209.9 z"
           style="fill:none;stroke:#000000;stroke-width:15;stroke-linecap:round;stroke-linejoin:round;stroke-miterlimit:10;stroke-dasharray:none;stroke-opacity:1"
           id="path6624" /><path
           d="M 271.121,423.894 H 240.887 V 504.5 h 30.234 z"
           style="fill:none;stroke:#000000;stroke-width:15;stroke-linecap:round;stroke-linejoin:round;stroke-miterlimit:10;stroke-dasharray:none;stroke-opacity:1"
           id="path6626" /><path
           d="M 310.758,278.709 H 201.249 v 90.112 h 109.509 z"
           style="fill:none;stroke:#000000;stroke-width:15;stroke-linecap:round;stroke-linejoin:round;stroke-miterlimit:10;stroke-dasharray:none;stroke-opacity:1"
           id="path6628" /><g
           id="g6630"
           transform="translate(275.8105,229.0117)"><path
             d="M 0,0 H -39.613 L -54.606,49.697 H 14.993 Z"
             style="fill:none;stroke:#000000;stroke-width:15;stroke-linecap:round;stroke-linejoin:round;stroke-miterlimit:10;stroke-dasharray:none;stroke-opacity:1"
             id="path6632" /></g><g
           id="g6634"
           transform="translate(255.7666,37.7539)"><path
             d="M 0,0 0.237,191.258"
             style="fill:none;stroke:#000000;stroke-width:15;stroke-linecap:round;stroke-linejoin:round;stroke-miterlimit:10;stroke-dasharray:none;stroke-opacity:1"
             id="path6636" /></g><g
           id="g6638"
           transform="translate(255.7666,37.7539)"><path
             d="M 0,0 -47.065,82.648"
             style="fill:none;stroke:#000000;stroke-width:15;stroke-linecap:round;stroke-linejoin:round;stroke-miterlimit:10;stroke-dasharray:none;stroke-opacity:1"
             id="path6640" /></g><g
           id="g6642"
           transform="translate(183.5044,90.0801)"><path
             d="M 0,0 -72.262,52.325"
             style="fill:none;stroke:#000000;stroke-width:15;stroke-linecap:round;stroke-linejoin:round;stroke-miterlimit:10;stroke-dasharray:none;stroke-opacity:1"
             id="path6644" /></g><g
           id="g6646"
           transform="translate(379.8921,7.5)"><path
             d="m 0,0 h -357.407 c -8.34,0 -15.1,6.772 -15.1,15.127 0,8.354 6.76,15.127 15.1,15.127 h 466.564 c 8.339,0 15.099,-6.773 15.099,-15.127 C 124.256,6.772 117.496,0 109.157,0 H 35.242"
             style="fill:none;stroke:#000000;stroke-width:15;stroke-linecap:round;stroke-linejoin:round;stroke-miterlimit:10;stroke-dasharray:none;stroke-opacity:1"
             id="path6648" /></g><g
           id="g6650"
           transform="translate(255.7666,37.7539)"><path
             d="M 0,0 -131.749,35.48"
             style="fill:none;stroke:#000000;stroke-width:15;stroke-linecap:round;stroke-linejoin:round;stroke-miterlimit:10;stroke-dasharray:none;stroke-opacity:1"
             id="path6652" /></g><g
           id="g6654"
           transform="translate(93.7847,81.377)"><path
             d="M 0,0 -19.012,5.12"
             style="fill:none;stroke:#000000;stroke-width:15;stroke-linecap:round;stroke-linejoin:round;stroke-miterlimit:10;stroke-dasharray:none;stroke-opacity:1"
             id="path6656" /></g><g
           id="g6658"
           transform="translate(255.7666,37.7539)"><path
             d="M 0,0 47.066,82.648"
             style="fill:none;stroke:#000000;stroke-width:15;stroke-linecap:round;stroke-linejoin:round;stroke-miterlimit:10;stroke-dasharray:none;stroke-opacity:1"
             id="path6660" /></g><g
           id="g6662"
           transform="translate(327.2588,89.5215)"><path
             d="M 0,0 73.033,52.884"
             style="fill:none;stroke:#000000;stroke-width:15;stroke-linecap:round;stroke-linejoin:round;stroke-miterlimit:10;stroke-dasharray:none;stroke-opacity:1"
             id="path6664" /></g><g
           id="g6666"
           transform="translate(255.7666,37.7539)"><path
             d="M 0,0 131.75,35.48"
             style="fill:none;stroke:#000000;stroke-width:15;stroke-linecap:round;stroke-linejoin:round;stroke-miterlimit:10;stroke-dasharray:none;stroke-opacity:1"
             id="path6668" /></g><g
           id="g6670"
           transform="translate(417.749,81.377)"><path
             d="M 0,0 19.012,5.12"
             style="fill:none;stroke:#000000;stroke-width:15;stroke-linecap:round;stroke-linejoin:round;stroke-miterlimit:10;stroke-dasharray:none;stroke-opacity:1"
             id="path6672" /></g><g
           id="g6674"
           transform="translate(230.9126,323.7656)"><path
             d="M 0,0 H 49.708"
             style="fill:none;stroke:#000000;stroke-width:15;stroke-linecap:round;stroke-linejoin:round;stroke-miterlimit:10;stroke-dasharray:none;stroke-opacity:1"
             id="path6676" /></g></g></g></g></svg>
