<svg id="Layer_1" enable-background="new 0 0 512 512" height="512" viewBox="0 0 512 512" width="512" xmlns="http://www.w3.org/2000/svg"><g><path d="m512 496.897c0 4.171-1.69 7.942-4.429 10.682-2.729 2.731-6.509 4.421-10.678 4.421h-481.786c-8.348 0-15.107-6.762-15.107-15.103 0-4.181 1.69-7.952 4.419-10.692 2.739-2.731 6.519-4.421 10.688-4.421h481.786c8.339-.001 15.107 6.761 15.107 15.113z" fill="#4c7889"/><path d="m512 496.897c0 4.171-1.69 7.942-4.429 10.682-2.729 2.731-6.509 4.421-10.678 4.421h-29.993c4.169 0 7.948-1.69 10.678-4.421 2.739-2.741 4.429-6.511 4.429-10.682 0-8.352-6.768-15.114-15.107-15.114h29.994c8.338 0 15.106 6.762 15.106 15.114z" fill="#364c59"/><path d="m370.92 79.938v70.516c0 2.801-2.27 5.081-5.079 5.081h-219.792c-2.809 0-5.079-2.281-5.079-5.081v-70.516z" fill="#ffc73b"/><path d="m370.92 79.938v70.516c0 2.801-2.27 5.081-5.079 5.081h-29.994c2.809 0 5.079-2.281 5.079-5.081v-70.516z" fill="#ffa73e"/><g fill="#ff5a39"><path d="m183.68 429.445c2.323 0 4.613-1.077 6.08-3.103 2.429-3.355 1.678-8.046-1.675-10.475l-72.247-52.338c-3.355-2.431-8.043-1.679-10.471 1.676-2.429 3.355-1.679 8.046 1.675 10.475l72.247 52.338c1.329.963 2.867 1.427 4.391 1.427z"/><path d="m95.936 423.403-19.009-5.121c-4.001-1.075-8.113 1.293-9.19 5.293-1.076 4.001 1.292 8.117 5.291 9.194l19.009 5.121c.653.176 1.309.26 1.954.26 3.307 0 6.335-2.206 7.236-5.553 1.077-4-1.292-8.116-5.291-9.194z"/><path d="m396.03 363.528-73.018 52.897c-3.354 2.429-4.104 7.12-1.675 10.475 1.466 2.027 3.757 3.103 6.08 3.103 1.524 0 3.063-.464 4.392-1.427l73.018-52.897c3.354-2.429 4.104-7.12 1.675-10.475-2.429-3.356-7.118-4.106-10.472-1.676z"/><path d="m385.705 431.547-114.356 30.811 38.156-67.034c2.049-3.599.793-8.181-2.806-10.231-3.597-2.048-8.176-.794-10.227 2.807l-33.009 57.991.205-162.902c.005-4.143-3.348-7.507-7.489-7.511h-.009c-4.137 0-7.493 3.352-7.498 7.492l-.205 163.034-33.073-58.104c-2.049-3.6-6.627-4.857-10.227-2.807-3.599 2.05-4.854 6.631-2.806 10.231l38.156 67.034-114.356-30.811c-4-1.077-8.113 1.293-9.19 5.293s1.292 8.117 5.291 9.194l131.721 35.489c.653.176 1.309.26 1.955.26.7 0 1.387-.099 2.044-.287l131.621-35.463c3.999-1.077 6.368-5.195 5.291-9.194-1.076-3.999-5.189-6.372-9.189-5.292z"/><path d="m444.13 423.575c-1.077-4-5.191-6.371-9.19-5.293l-19.009 5.121c-3.999 1.077-6.367 5.194-5.291 9.194.901 3.347 3.929 5.553 7.236 5.553.645 0 1.301-.084 1.954-.26l19.009-5.121c3.999-1.077 6.368-5.193 5.291-9.194z"/></g><path d="m293.517 244.635-13.857 45.881c-.68 2.23-2.739 3.761-5.069 3.761h-37.772c-2.33 0-4.379-1.53-5.059-3.761l-13.857-45.881z" fill="#b7d4e2"/><path d="m293.517 244.635-13.857 45.881c-.68 2.23-2.739 3.761-5.069 3.761h-14.707c2.329 0 4.389-1.53 5.059-3.761l13.867-45.881z" fill="#99bac6"/><g><path d="m487.685 49.353v45.938c0 2.891-2.339 5.231-5.229 5.231h-453.022c-2.889 0-5.229-2.34-5.229-5.231v-45.938z" fill="#668fa3"/><path d="m487.685 49.353v45.938c0 2.891-2.339 5.231-5.229 5.231h-39.991c2.889 0 5.229-2.34 5.229-5.231v-45.938z" fill="#4c7889"/></g><g><path d="m511.89 23.405v30.717c0 2.891-2.34 5.231-5.229 5.231h-501.432c-2.889 0-5.229-2.34-5.229-5.231v-30.717c0-2.891 2.34-5.231 5.229-5.231h501.432c2.89 0 5.229 2.341 5.229 5.231z" fill="#b7d4e2"/><path d="m511.89 23.405v30.717c0 2.891-2.34 5.231-5.229 5.231h-39.991c2.889 0 5.229-2.34 5.229-5.231v-30.717c0-2.891-2.34-5.231-5.229-5.231h39.991c2.89 0 5.229 2.341 5.229 5.231z" fill="#99bac6"/></g><path d="m279.61 4.441v96.082h-47.23v-96.082c0-2.451 1.98-4.441 4.439-4.441h38.352c2.459 0 4.439 1.99 4.439 4.441z" fill="#4c7889"/><path d="m279.61 4.441v96.082h-23.615v-96.082c0-2.451-1.99-4.441-4.439-4.441h23.615c2.459 0 4.439 1.99 4.439 4.441z" fill="#364c59"/><path d="m315.762 155.535v84.889c0 2.831-2.29 5.121-5.119 5.121h-109.286c-2.829 0-5.129-2.29-5.129-5.121v-84.889z" fill="#4c7889"/><g fill="#364c59"><path d="m315.762 155.535v84.889c0 2.831-2.29 5.121-5.119 5.121h-19.996c2.829 0 5.119-2.29 5.119-5.121v-84.889z"/><path d="m280.569 192.126h-49.721c-4.141 0-7.498 3.358-7.498 7.502s3.357 7.502 7.498 7.502h49.721c4.141 0 7.498-3.358 7.498-7.502s-3.357-7.502-7.498-7.502z"/></g></g></svg>