<svg id="Capa_1" enable-background="new 0 0 512 512" height="512" viewBox="0 0 512 512" width="512" xmlns="http://www.w3.org/2000/svg"><g><g><path d="m411.847 352.273h-315.847c-4.268 0-7.726 3.459-7.726 7.726s3.459 7.726 7.726 7.726h315.848c4.268 0 7.726-3.459 7.726-7.726 0-4.266-3.459-7.726-7.727-7.726z" fill="#dcdcee"/><path d="m7.211 392h1.789c3.866 0 7-3.134 7-7v-81h65.094l15.453 21.308v66.692l-.627.649c2.495 1.135 4.233 3.643 4.233 6.562v17.577c0 3.983-3.229 7.211-7.211 7.211h-85.731c-3.982.001-7.211-3.228-7.211-7.21v-17.577c0-3.983 3.229-7.212 7.211-7.212z" fill="#7b6c79"/><path d="m81.094 386.715v-82.715h30.906v81c0 3.866 3.134 7 7 7h1.789c3.983 0 7.211 3.229 7.211 7.211v17.577c0 3.983-3.229 7.211-7.211 7.211h-30.906c3.983 0 7.211-3.229 7.211-7.211v-16.074c0-3.866-3.134-7-7-7h-2c-3.866.001-7-3.133-7-6.999z" fill="#6d5f6c"/><path d="m391.211 392h1.789c3.866 0 7-3.134 7-7v-81h65.094l15.453 21.308v66.692l-.627.649c2.495 1.135 4.233 3.643 4.233 6.562v17.577c0 3.983-3.229 7.211-7.211 7.211h-85.73c-3.983 0-7.211-3.229-7.211-7.211v-17.577c-.001-3.982 3.228-7.211 7.21-7.211z" fill="#7b6c79"/><path d="m465.094 385v-81h30.906v81c0 3.866 3.134 7 7 7h1.789c3.983 0 7.211 3.229 7.211 7.211v17.577c0 3.983-3.229 7.211-7.211 7.211h-30.906c3.983 0 7.211-3.229 7.211-7.211v-17.788c0-3.866-3.134-7-7-7h-2c-3.866 0-7-3.134-7-7z" fill="#6d5f6c"/><path d="m430.906 120.274h-35.887c-4.268 0-7.726 3.459-7.726 7.726s3.459 7.726 7.726 7.726h35.887c4.268 0 7.726-3.459 7.726-7.726s-3.459-7.726-7.726-7.726z" fill="#dcdcee"/><path d="m460.645 152h-37.645c-3.866 0-7-3.134-7-7v-34c0-3.866 3.134-7 7-7h37.645z" fill="#7b6c79"/><path d="m163.914 135.726h33.067c4.268 0 7.726-3.459 7.726-7.726s-3.459-7.726-7.726-7.726h-33.067c-4.268 0-7.726 3.459-7.726 7.726s3.458 7.726 7.726 7.726z" fill="#dcdcee"/><path d="m144.932 103.584h-40.516l12 48h28.516c3.866 0 7-3.134 7-7v-34c0-3.866-3.134-7-7-7z" fill="#7b6c79"/><path d="m169.416 103.584h-30c3.866 0 7 3.134 7 7v34c0 3.866-3.134 7-7 7h30c3.866 0 7-3.134 7-7v-34c0-3.866-3.134-7-7-7z" fill="#6d5f6c"/><path d="m484.23 88h-29.23c-3.866 0-7 3.134-7 7v114c0 3.866-3.134 7-7 7h-311.908c-3.212 0-6.012-2.186-6.791-5.302l-29.349-117.396c-.779-3.116-3.579-5.302-6.791-5.302h-79.161c-3.866 0-7 3.134-7 7v210c0 3.866 3.134 7 7 7h169l18.95-12.168h221.05l16 12.168h52.23c3.866 0 7-3.134 7-7v-210c0-3.866-3.134-7-7-7z" fill="#26a6fe"/><path d="m75.137 152h-36.137c-3.866 0-7-3.134-7-7v-18c0-3.866 3.134-7 7-7h36.137c3.866 0 7 3.134 7 7v18c0 3.866-3.134 7-7 7z" fill="#89f2a9"/><g fill="#dcdcee"><path d="m32 176.274c-4.423 0-7.732 3.635-7.732 7.726 0 4.169 3.387 7.726 7.726 7.726 4.338 0 7.726-3.522 7.726-7.726.002-4.257-3.454-7.726-7.72-7.726z"/><path d="m63.998 176.274c-4.287 0-7.721 3.481-7.721 7.726 0 4.241 3.431 7.726 7.726 7.726 4.304 0 7.716-3.505 7.716-7.726.001-4.223-3.413-7.726-7.721-7.726z"/><path d="m96.001 191.726c4.345 0 7.726-3.562 7.726-7.726 0-4.342-3.55-7.726-7.728-7.726-4.298 0-7.725 3.492-7.725 7.726 0 4.188 3.385 7.726 7.727 7.726z"/></g><path d="m505 88h-30c3.866 0 7 3.134 7 7v114c0 3.866-3.134 7-7 7h-325.535c-3.212 0-6.012-2.186-6.791-5.302l-29.348-117.396c-.779-3.116-3.579-5.302-6.791-5.302h-30c3.212 0 6.012 2.186 6.791 5.302.264 1.057 29.372 117.496 29.349 117.396.613 2.718-1.453 5.302-4.239 5.302h-108.436v15h475c3.866 0 7 3.134 7 7v67c0 3.866-3.134 7-7 7h30c3.866 0 7-3.134 7-7v-210c0-3.866-3.134-7-7-7z" fill="#0593fc"/><path d="m256 212.814h65.094l14.906-22.407-14.906-22.407h-58.094c-3.866 0-7 3.134-7 7z" fill="#7b6c79"/><path d="m352 175v37.814h-30.906v-44.814h23.906c3.866 0 7 3.134 7 7z" fill="#6d5f6c"/><path d="m352 200h-121c-3.866 0-7 3.134-7 7v84.131h130l5-84.131c0-3.866-3.134-7-7-7z" fill="#ecebfc"/><path d="m121 280h-82c-3.866 0-7-3.134-7-7v-50c0-3.866 3.134-7 7-7h82c3.866 0 7 3.134 7 7v50c0 3.866-3.134 7-7 7z" fill="#ecebfc"/><path d="m63.998 240.277c-4.241 0-7.721 3.435-7.721 7.719 0 4.252 3.441 7.736 7.726 7.736 4.185 0 7.716-3.399 7.716-7.736.001-4.26-3.454-7.719-7.721-7.719z" fill="#dcdcee"/><path d="m96.001 255.722c4.316 0 7.726-3.514 7.726-7.726 0-4.345-3.545-7.719-7.728-7.719-4.297 0-7.725 3.488-7.725 7.719 0 4.244 3.419 7.726 7.727 7.726z" fill="#dcdcee"/><path d="m479.971 112.276c-4.168 0-7.704 3.414-7.704 7.729 0 4.197 3.431 7.726 7.736 7.726 4.28 0 7.726-3.514 7.726-7.726.001-4.051-3.204-7.729-7.758-7.729z" fill="#7b6c79"/><path d="m377 200h-30c3.866 0 7 3.134 7 7v84.131h30v-84.131c0-3.866-3.134-7-7-7z" fill="#dcdcee"/><path d="m432 312h-256l14.065-28.13c1.186-2.371 3.61-3.87 6.261-3.87h215.348c2.651 0 5.075 1.498 6.261 3.87z" fill="#0593fc"/><circle cx="240" cy="280" fill="#7b6c79" r="32"/><path d="m240.001 287.73c4.165 0 7.726-3.411 7.726-7.726 0-4.222-3.444-7.729-7.7-7.729-4.313 0-7.753 3.467-7.753 7.729 0 4.276 3.487 7.726 7.727 7.726z" fill="#ecebfc"/></g></g></svg>