<svg id="Spray" viewBox="0 0 64 64" xmlns="http://www.w3.org/2000/svg"><path d="m63 46c-4.41113281 0-8 3.58886719-8 8v5c0 1.65429688-1.34570312 3-3 3s-3-1.34570312-3-3v-1.22003174l3.23999023-.80999756c.27001953-.07000732.5-.23999023.63000488-.47998047.14001465-.23999023.16998291-.52001953.09002686-.7800293l-1.63000488-5.29998779-4.20001221 1.40002441c-.09997559.02996826-.21002197.04998779-.30999756.04998779-.41998291 0-.80999756-.27001953-.95001221-.69000244-.17999268-.52001953.10998535-1.09002686.63000488-1.26000977l4.23999023-1.40997314-.64001465-2.09002686-4.4699707 1.48999023c-.09997559.0300293-.21002197.05004883-.30999756.05004883-.41998291 0-.80999756-.27001953-.95001221-.69000244-.17999268-.52001953.10998535-1.09002686.63000488-1.26000977l4.51000977-1.5-.41003418-1.34002686 1.7300415-2.60998535c.29998779-.44000244.19000244-1.0300293-.2300415-1.34997559l-2.98999023-2.24005127-6.9699707 5.80999756c-.17999268.15002441-.41003418.2300415-.64001465.2300415h-4.46002197l-2.15997314 3.22998047 3.72998047 1.48999023 1.90002441 11.44000244c.04998779.2800293.20996094.52001953.44000244.67999268.16998291.10003662.35998535.16003418.54998779.16003418.08001709 0 .15997314-.01000977.23999023-.0300293l6.76000977-1.69000244v.72003174c0 2.75683594 2.24316406 5 5 5s5-2.24316406 5-5v-5c0-3.30859375 2.69140625-6 6-6 .55273438 0 1-.44726562 1-1s-.44726562-1-1-1z"/><path d="m50.29296875 18.70703125c.1953125.1953125.45117188.29296875.70703125.29296875s.51171875-.09765625.70703125-.29296875l3-3c.390625-.390625.390625-1.0234375 0-1.4140625l-14-14c-.390625-.390625-1.0234375-.390625-1.4140625 0l-3 3c-.390625.390625-.390625 1.0234375 0 1.4140625z"/><path d="m17.41998291 54.19000244c-.32000732.2199707-.47998047.60998535-.39996338 1 .07000732.38000488.35998535.69000244.73999023.77996826.07000732.02001953.45001221.10998535 1.04998779.10998535 2.22003174 0 7.42999268-1.15997314 11.5-11.07995605h-7.05999756c-.79998779 3.02996826-2.44000244 6.7699585-5.83001709 9.19000244z"/><path d="m13 30v10c0 .54998779.45001221 1 1 1h2v-12h-2c-.54998779 0-1 .45001221-1 1z"/><path d="m8 33v4c0 .47998047.34002686.89001465.79998779.97998047l2.20001221.44000244v-6.84002686l-2.20001221.44000244c-.45996094.09002686-.79998779.5-.79998779.9800415z"/><path d="m54 29v2h-2v-1c0-.54998779-.45001221-1-1-1h-2.09997559c.06994629.32000732.09997559.65997314.09997559 1v5h2c.54998779 0 1-.45001221 1-1v-1h2v2c0 .55273438.44726562 1 1 1s1-.44726562 1-1v-6c0-.55273438-.44726562-1-1-1s-1 .44726562-1 1z"/><path d="m5 34h-4c-.55273438 0-1 .44726562-1 1s.44726562 1 1 1h4c.55273438 0 1-.44726562 1-1s-.44726562-1-1-1z"/><path d="m4.4453125 30.83203125c.17089844.11328125.36328125.16796875.55371094.16796875.32324219 0 .640625-.15625.83300781-.4453125.30664062-.45996094.18261719-1.08007812-.27734375-1.38671875l-3-2c-.46191406-.30566406-1.08105469-.18261719-1.38671875.27734375-.30664062.45996094-.18261719 1.08007812.27734375 1.38671875z"/><path d="m4.4453125 39.16796875-3 2c-.45996094.30664062-.58398438.92675781-.27734375 1.38671875.19238281.2890625.50976562.4453125.83300781.4453125.19042969 0 .3828125-.0546875.55371094-.16796875l3-2c.45996094-.30664062.58398438-.92675781.27734375-1.38671875-.30664062-.45898438-.92675781-.58300781-1.38671875-.27734375z"/><path d="m35 41h4.64001465l7.35998535-6.14001465v-4.85998535c0-1.65002441-1.34997559-3-3-3h-25c-.54998779 0-1 .45001221-1 1v14c0 .54998779.45001221 1 1 1h14.13000488l1.03997803-1.54998779c.17999268-.2800293.5-.45001221.83001709-.45001221zm0-10h4c.54998779 0 1 .45001221 1 1s-.45001221 1-1 1h-4c-.54998779 0-1-.45001221-1-1s.45001221-1 1-1zm0 4h4c.54998779 0 1 .45001221 1 1s-.45001221 1-1 1h-4c-.54998779 0-1-.45001221-1-1s.45001221-1 1-1z"/><path d="m44.09997559 24c.2300415-.0300293.44000244-.13000488.61004639-.29003906l3.88000488-3.88000488-13.42004395-13.41998291-3.88000488 3.88000488c-.15997314.16998291-.25994873.38000488-.28997803.60998535l-.78997803 7.90002441 5.98999023 5.98999023 7.89996338-.78997803z"/><path d="m33.5859375 25-4.00299072-4.00299072-1.23242188 1.23242187 2.77056885 2.77056885z"/><path d="m26.9364624 23.64349365-1.35644531 1.35650635h2.71295166z"/></svg>